<mxfile host="app.diagrams.net" modified="2023-06-15T02:51:52.688Z" agent="Mozilla/5.0 (X11; Linux x86_64) AppleWebKit/537.36 (KHTML, like Gecko) Chrome/114.0.0.0 Safari/537.36" version="21.3.8" etag="AislUbosGGj6Y4X81e4u" type="github">
  <diagram name="Page-1" id="MHnDPAXIs0dF89etuGN6">
    <mxGraphModel>
      <root>
        <mxCell id="0" />
        <mxCell id="1" parent="0" />
      </root>
    </mxGraphModel>
  </diagram>
</mxfile>
